<svg xmlns="http://www.w3.org/2000/svg" viewBox="0 0 64 64">
  <defs>
    <linearGradient id="bg" x1="0" x2="1" y1="0" y2="1">
      <stop offset="0%" stop-color="#15803d" />
      <stop offset="100%" stop-color="#166534" />
    </linearGradient>
  </defs>
  <rect width="64" height="64" rx="14" fill="url(#bg)" />
  <path d="M32 12v40" stroke="#facc15" stroke-width="3.5" stroke-linecap="round" />
  <path d="M32 18c6 0 10 4 10 10-6 0-10-4-10-10Z" fill="#fde047" />
  <path d="M32 26c6 0 10 4 10 10-6 0-10-4-10-10Z" fill="#facc15" />
  <path d="M32 34c6 0 10 4 10 10-6 0-10-4-10-10Z" fill="#eab308" />
  <path d="M32 18c-6 0-10 4-10 10 6 0 10-4 10-10Z" fill="#fde047" />
  <path d="M32 26c-6 0-10 4-10 10 6 0 10-4 10-10Z" fill="#facc15" />
  <path d="M32 34c-6 0-10 4-10 10 6 0 10-4 10-10Z" fill="#eab308" />
</svg>
